<?xml version="1.0" encoding="UTF-8"?>
<svg version="1.1" xmlns="http://www.w3.org/2000/svg" width="75" height="56">
<path d="M0 0 C2.88737021 1.07245179 4.86871251 2.81576632 7.1875 4.8125 C7.62320313 4.43996094 8.05890625 4.06742188 8.5078125 3.68359375 C11.62721969 1.2056231 13.36512411 -0.15587016 17.4375 -0.3125 C20.1875 0.8125 20.1875 0.8125 22.1875 3.125 C23.1875 5.8125 23.1875 5.8125 22.6328125 7.68359375 C20.62019167 10.64812984 17.9423864 12.5111656 15.0625 14.5625 C14.49917969 14.97371094 13.93585937 15.38492187 13.35546875 15.80859375 C11.97148366 16.81726085 10.58019459 17.81589286 9.1875 18.8125 C12.1575 18.4825 15.1275 18.1525 18.1875 17.8125 C18.6825 19.2975 18.6825 19.2975 19.1875 20.8125 C20.1775 21.1425 21.1675 21.4725 22.1875 21.8125 C21.8575 22.4725 21.5275 23.1325 21.1875 23.8125 C18.86593403 24.21979228 16.5306213 24.55688677 14.1875 24.8125 C14.8475 25.39 15.5075 25.9675 16.1875 26.5625 C18.1875 28.8125 18.1875 28.8125 18.1875 32.8125 C15.2175 32.3175 15.2175 32.3175 12.1875 31.8125 C12.1875 31.1525 12.1875 30.4925 12.1875 29.8125 C10.77353098 29.30492138 9.35618271 28.80675075 7.9375 28.3125 C7.14859375 28.0340625 6.3596875 27.755625 5.546875 27.46875 C2.95337262 26.63385139 2.95337262 26.63385139 -0.8125 26.8125 C-3.44539652 28.30980472 -3.44539652 28.30980472 -6.125 30.25 C-10.52223982 33.14431139 -13.50640044 35.03358748 -18.8125 34.8125 C-21.4604735 33.04718433 -21.7894986 31.88150421 -22.8125 28.8125 C-21.18994772 27.33064875 -19.56438112 25.85209744 -17.9375 24.375 C-16.58011719 23.13943359 -16.58011719 23.13943359 -15.1953125 21.87890625 C-12.8125 19.8125 -12.8125 19.8125 -10.8125 18.8125 C-12.0809375 17.7296875 -12.0809375 17.7296875 -13.375 16.625 C-15.8125 13.8125 -15.8125 13.8125 -15.875 11.25 C-14.59903366 8.3227831 -13.37930547 6.71926978 -10.8125 4.8125 C-8.5625 5.0625 -8.5625 5.0625 -6.8125 5.8125 C-6.35875 5.008125 -5.905 4.20375 -5.4375 3.375 C-3.09426796 -0.32009669 -3.09426796 -0.32009669 0 0 Z M-1.8125 4.8125 C-1.4825 6.1325 -1.1525 7.4525 -0.8125 8.8125 C-0.1525 8.4825 0.5075 8.1525 1.1875 7.8125 C1.1875 6.8225 1.1875 5.8325 1.1875 4.8125 C0.1975 4.8125 -0.7925 4.8125 -1.8125 4.8125 Z M-10.8125 9.8125 C-10.8125 10.8025 -10.8125 11.7925 -10.8125 12.8125 C-9.4925 12.4825 -8.1725 12.1525 -6.8125 11.8125 C-8.1325 11.1525 -9.4525 10.4925 -10.8125 9.8125 Z " fill="#F9CA18" transform="translate(38.8125,10.1875)"/>
<path d="M0 0 C2.8125 0.1875 2.8125 0.1875 6 1 C8 3.3125 8 3.3125 9 6 C7.74285352 10.24065609 4.31549184 12.29934804 0.875 14.75 C0.03001953 15.36681641 0.03001953 15.36681641 -0.83203125 15.99609375 C-2.21601634 17.00476085 -3.60730541 18.00339286 -5 19 C-2.03 18.67 0.94 18.34 4 18 C4.33 18.99 4.66 19.98 5 21 C5.99 21.33 6.98 21.66 8 22 C7.67 22.66 7.34 23.32 7 24 C4.67843403 24.40729228 2.3431213 24.74438677 0 25 C0.99 25.86625 0.99 25.86625 2 26.75 C4 29 4 29 4 33 C2.02 32.67 0.04 32.34 -2 32 C-2 31.34 -2 30.68 -2 30 C-3.41396902 29.49242138 -4.83131729 28.99425075 -6.25 28.5 C-7.03890625 28.2215625 -7.8278125 27.943125 -8.640625 27.65625 C-12.01134137 26.71869975 -14.27013684 26.59398341 -17.359375 28.3125 C-18.14828125 28.869375 -18.9371875 29.42625 -19.75 30 C-20.54921875 30.556875 -21.3484375 31.11375 -22.171875 31.6875 C-22.77515625 32.120625 -23.3784375 32.55375 -24 33 C-24 32.01 -24 31.02 -24 30 C-23.34 30 -22.68 30 -22 30 C-22 29.01 -22 28.02 -22 27 C-21.34 27 -20.68 27 -20 27 C-20 26.34 -20 25.68 -20 25 C-12.44947999 23.53860903 -7.87568372 24.65546074 -1 28 C-1.66 27.34 -2.32 26.68 -3 26 C-3 25.01 -3 24.02 -3 23 C-4.32 23 -5.64 23 -7 23 C-7.625 19.625 -7.625 19.625 -8 16 C-5.23776722 13.23776722 -2.79293383 13.42143709 1 13 C1 11.68 1 10.36 1 9 C2.32 9 3.64 9 5 9 C4.67 7.35 4.34 5.7 4 4 C1.03 3.505 1.03 3.505 -2 3 C-1.34 2.01 -0.68 1.02 0 0 Z " fill="#EECF56" transform="translate(53,10)"/>
<path d="M0 0 C2.88737021 1.07245179 4.86871251 2.81576632 7.1875 4.8125 C8.8375 4.1525 10.4875 3.4925 12.1875 2.8125 C11.953125 4.70703125 11.953125 4.70703125 11.1875 6.8125 C9.296875 7.82421875 9.296875 7.82421875 6.9375 8.5 C5.72126953 8.85384766 5.72126953 8.85384766 4.48046875 9.21484375 C-2.41384378 11.01182811 -2.41384378 11.01182811 -4.8125 9.8125 C-4.895 11.05 -4.9775 12.2875 -5.0625 13.5625 C-5.44257212 16.50936056 -5.7363397 17.70531143 -7.5 20.1875 C-10.17039828 22.06399609 -12.67534759 22.95691298 -15.8125 23.8125 C-14.1625 22.1625 -12.5125 20.5125 -10.8125 18.8125 C-12.0809375 17.7296875 -12.0809375 17.7296875 -13.375 16.625 C-15.8125 13.8125 -15.8125 13.8125 -15.875 11.25 C-14.59903366 8.3227831 -13.37930547 6.71926978 -10.8125 4.8125 C-8.5625 5.0625 -8.5625 5.0625 -6.8125 5.8125 C-6.35875 5.008125 -5.905 4.20375 -5.4375 3.375 C-3.09426796 -0.32009669 -3.09426796 -0.32009669 0 0 Z M-1.8125 4.8125 C-1.4825 6.1325 -1.1525 7.4525 -0.8125 8.8125 C-0.1525 8.4825 0.5075 8.1525 1.1875 7.8125 C1.1875 6.8225 1.1875 5.8325 1.1875 4.8125 C0.1975 4.8125 -0.7925 4.8125 -1.8125 4.8125 Z M-10.8125 9.8125 C-10.8125 10.8025 -10.8125 11.7925 -10.8125 12.8125 C-9.4925 12.4825 -8.1725 12.1525 -6.8125 11.8125 C-8.1325 11.1525 -9.4525 10.4925 -10.8125 9.8125 Z " fill="#F1D573" transform="translate(38.8125,10.1875)"/>
<path d="M0 0 C2.75457718 0.37994168 3.82020574 0.8073633 5.75 2.875 C7 5 7 5 7 8 C4.69 8.33 2.38 8.66 0 9 C0 9.66 0 10.32 0 11 C-0.66 11 -1.32 11 -2 11 C-2 11.99 -2 12.98 -2 14 C-4.05637473 16.20684117 -5.39496326 17.63814782 -8 19 C-11.875 18.8125 -11.875 18.8125 -15 18 C-15.66 16.35 -16.32 14.7 -17 13 C-12.88949427 9.20568702 -9.20583121 7.02834247 -3.953125 5.08984375 C-1.55998935 3.75447406 -0.98155902 2.51132919 0 0 Z " fill="#EB800B" transform="translate(33,26)"/>
<path d="M0 0 C1.99954746 -0.04254356 4.00041636 -0.04080783 6 0 C7 1 7 1 7.0625 3.5625 C7.041875 4.366875 7.02125 5.17125 7 6 C5.68 6 4.36 6 3 6 C3 7.32 3 8.64 3 10 C-0.31114834 11.12880057 -3.58978257 12.21302675 -7 13 C-7 12.34 -7 11.68 -7 11 C-7.99 10.67 -8.98 10.34 -10 10 C-9.34 8.35 -8.68 6.7 -8 5 C-4.535 4.505 -4.535 4.505 -1 4 C-0.67 2.68 -0.34 1.36 0 0 Z " fill="#ED7F0B" transform="translate(51,13)"/>
<path d="M0 0 C2.8125 0.1875 2.8125 0.1875 6 1 C8 3.3125 8 3.3125 9 6 C7.73679984 10.17291638 4.43727197 12.28613556 1.0625 14.75 C0.25522461 15.36681641 0.25522461 15.36681641 -0.56835938 15.99609375 C-4.61515002 19 -4.61515002 19 -8 19 C-8 16 -8 16 -6 14 C-3.67724823 13.59952556 -1.34260643 13.2602896 1 13 C1 11.68 1 10.36 1 9 C2.32 9 3.64 9 5 9 C4.67 7.35 4.34 5.7 4 4 C1.03 3.505 1.03 3.505 -2 3 C-1.34 2.01 -0.68 1.02 0 0 Z " fill="#DC963B" transform="translate(53,10)"/>
<path d="M0 0 C0.33 0 0.66 0 1 0 C0.67 3.63 0.34 7.26 0 11 C-2.31 11 -4.62 11 -7 11 C-7 11.66 -7 12.32 -7 13 C-5.68 13.33 -4.36 13.66 -3 14 C-3 14.99 -3 15.98 -3 17 C-6.00900373 15.49549813 -7.84381063 13.56411708 -10 11 C-10.08252246 7.61657919 -9.23225631 6.30433585 -7.1875 3.625 C-5 2 -5 2 -2.75 2.25 C-1.88375 2.62125 -1.88375 2.62125 -1 3 C-0.67 2.01 -0.34 1.02 0 0 Z M-5 7 C-5 7.99 -5 8.98 -5 10 C-3.68 9.67 -2.36 9.34 -1 9 C-2.32 8.34 -3.64 7.68 -5 7 Z " fill="#ECD373" transform="translate(33,13)"/>
<path d="M0 0 C0.33 1.32 0.66 2.64 1 4 C-1.97 3.505 -1.97 3.505 -5 3 C-4.22969878 6.48809191 -4.22969878 6.48809191 -3 10 C-2.01 10.33 -1.02 10.66 0 11 C-3.8503105 13.56687367 -5.58569763 12.83288724 -10 12 C-10.66 10.35 -11.32 8.7 -12 7 C-3.89473684 0 -3.89473684 0 0 0 Z " fill="#D07E26" transform="translate(28,32)"/>
<path d="M0 0 C1.46373047 0.40412109 1.46373047 0.40412109 2.95703125 0.81640625 C3.69308594 1.02136719 4.42914063 1.22632813 5.1875 1.4375 C5.1875 2.0975 5.1875 2.7575 5.1875 3.4375 C-2.21961176 2.80977866 -2.21961176 2.80977866 -5.5 0.75 C-7.73063518 -0.85346563 -7.73063518 -0.85346563 -10.1875 -0.0625 C-13.59121499 1.88248 -16.66810552 4.09461784 -19.8125 6.4375 C-19.8125 5.4475 -19.8125 4.4575 -19.8125 3.4375 C-19.1525 3.4375 -18.4925 3.4375 -17.8125 3.4375 C-17.8125 2.4475 -17.8125 1.4575 -17.8125 0.4375 C-17.1525 0.4375 -16.4925 0.4375 -15.8125 0.4375 C-15.8125 -0.2225 -15.8125 -0.8825 -15.8125 -1.5625 C-10.07501266 -3.03785389 -5.60058665 -1.55196979 0 0 Z " fill="#E3C76B" transform="translate(48.8125,36.5625)"/>
<path d="M0 0 C0.433125 0.45375 0.86625 0.9075 1.3125 1.375 C3.10798342 3.20024334 3.10798342 3.20024334 6 5 C3.03 4.505 3.03 4.505 0 4 C-0.0825 5.2375 -0.165 6.475 -0.25 7.75 C-0.63007212 10.69686056 -0.9238397 11.89281143 -2.6875 14.375 C-5.35789828 16.25149609 -7.86284759 17.14441298 -11 18 C-9.75 16 -9.75 16 -8 14 C-6.68 14 -5.36 14 -4 14 C-4.33 13.01 -4.66 12.02 -5 11 C-5.99 10.67 -6.98 10.34 -8 10 C-8 9.34 -8 8.68 -8 8 C-5.69 8 -3.38 8 -1 8 C-0.67 5.36 -0.34 2.72 0 0 Z " fill="#EEBC42" transform="translate(34,16)"/>
<path d="M0 0 C2.8125 0.1875 2.8125 0.1875 6 1 C8 3.3125 8 3.3125 9 6 C8.1875 8.3125 8.1875 8.3125 7 10 C6.34 10 5.68 10 5 10 C4.67 8.02 4.34 6.04 4 4 C1.03 3.505 1.03 3.505 -2 3 C-1.34 2.01 -0.68 1.02 0 0 Z " fill="#E39C4A" transform="translate(53,10)"/>
<path d="M0 0 C1.67542976 0.28604898 3.34385343 0.61781233 5 1 C5.66 2.98 6.32 4.96 7 7 C4.125 6.8125 4.125 6.8125 1 6 C-0.375 3.4375 -0.375 3.4375 -1 1 C-0.67 0.67 -0.34 0.34 0 0 Z " fill="#372620" transform="translate(17,38)"/>
<path d="M0 0 C0.66 0.33 1.32 0.66 2 1 C1.67 1.99 1.34 2.98 1 4 C-1.28515625 4.94921875 -1.28515625 4.94921875 -4.0625 5.6875 C-5.44115234 6.06455078 -5.44115234 6.06455078 -6.84765625 6.44921875 C-7.55792969 6.63097656 -8.26820312 6.81273437 -9 7 C-9 6.34 -9 5.68 -9 5 C-8.34 5 -7.68 5 -7 5 C-7 3.68 -7 2.36 -7 1 C-6.401875 1.20625 -5.80375 1.4125 -5.1875 1.625 C-2.71549154 2.30671915 -2.71549154 2.30671915 0 0 Z " fill="#ECC05F" transform="translate(49,13)"/>
<path d="M0 0 C0.99 0.33 1.98 0.66 3 1 C3.8125 2.8125 3.8125 2.8125 4 5 C3.0625 7.25 3.0625 7.25 2 9 C1.34 9 0.68 9 0 9 C-0.87890625 2.84765625 -0.87890625 2.84765625 -1 1 C-0.67 0.67 -0.34 0.34 0 0 Z " fill="#FCC50F" transform="translate(41,23)"/>
<path d="M0 0 C4.6875 3.515625 4.6875 3.515625 6 5 C6 6.32 6 7.64 6 9 C3.03 8.505 3.03 8.505 0 8 C0 7.34 0 6.68 0 6 C0.99 6 1.98 6 3 6 C2.2575 5.071875 2.2575 5.071875 1.5 4.125 C0 2 0 2 0 0 Z " fill="#EAD890" transform="translate(51,34)"/>
<path d="M0 0 C1.32 0.33 2.64 0.66 4 1 C1.19195732 3.96404505 -1.18315774 6.44499019 -5 8 C-4.67 7.01 -4.34 6.02 -4 5 C-3.34 5 -2.68 5 -2 5 C-2 4.01 -2 3.02 -2 2 C-1.34 2 -0.68 2 0 2 C0 1.34 0 0.68 0 0 Z " fill="#DE994E" transform="translate(33,35)"/>
<path d="M0 0 C2.79828356 0.38597015 3.8205884 0.80136573 5.75 2.9375 C7 5 7 5 7 7 C5.68 6.67 4.36 6.34 3 6 C2.67 6.66 2.34 7.32 2 8 C2.33 6.02 2.66 4.04 3 2 C2.01 2 1.02 2 0 2 C0 1.34 0 0.68 0 0 Z " fill="#EC8C04" transform="translate(33,26)"/>
<path d="M0 0 C0.66 0.33 1.32 0.66 2 1 C2 2.32 2 3.64 2 5 C1.34 5 0.68 5 0 5 C0.33 5.99 0.66 6.98 1 8 C-1.475 7.01 -1.475 7.01 -4 6 C-3.525625 5.566875 -3.05125 5.13375 -2.5625 4.6875 C-0.76313043 2.97690387 -0.76313043 2.97690387 0 0 Z " fill="#F2C927" transform="translate(44,28)"/>
<path d="M0 0 C0.66 0 1.32 0 2 0 C2 2.64 2 5.28 2 8 C1.67 7.34 1.34 6.68 1 6 C0.01 5.67 -0.98 5.34 -2 5 C-1.34 3.35 -0.68 1.7 0 0 Z " fill="#E98F05" transform="translate(43,18)"/>
<path d="M0 0 C0.5775 0.20625 1.155 0.4125 1.75 0.625 C1.75 1.285 1.75 1.945 1.75 2.625 C2.74 2.955 3.73 3.285 4.75 3.625 C4.09 4.285 3.43 4.945 2.75 5.625 C2.75 4.965 2.75 4.305 2.75 3.625 C-1.705 2.635 -1.705 2.635 -6.25 1.625 C-2.25 -0.375 -2.25 -0.375 0 0 Z " fill="#F5E5AE" transform="translate(56.25,28.375)"/>
<path d="M0 0 C1.65 0.33 3.3 0.66 5 1 C3.37660195 2.70884005 1.70680947 4.37446717 0 6 C-0.66 6 -1.32 6 -2 6 C-2 5.34 -2 4.68 -2 4 C-1.34 4 -0.68 4 0 4 C0 2.68 0 1.36 0 0 Z " fill="#DF984D" transform="translate(54,19)"/>
<path d="M0 0 C0.99 0.33 1.98 0.66 3 1 C4.1875 4.0625 4.1875 4.0625 5 7 C4.01 7.66 3.02 8.32 2 9 C1.855625 7.88625 1.71125 6.7725 1.5625 5.625 C1.21627965 2.17857953 1.21627965 2.17857953 0 0 Z " fill="#E5B278" transform="translate(57,11)"/>
</svg>
