<?xml version="1.0" encoding="UTF-8"?>
<svg version="1.1" xmlns="http://www.w3.org/2000/svg" width="308" height="300">
<path d="M0 0 C4.51356971 1.50452324 7.72758437 2.81775 11.73046875 5.15234375 C12.78041016 5.76400391 13.83035156 6.37566406 14.91210938 7.00585938 C15.99298828 7.64330078 17.07386719 8.28074219 18.1875 8.9375 C19.27998047 9.57107422 20.37246094 10.20464844 21.49804688 10.85742188 C29.05907415 15.28782048 32.8002951 17.70267153 35.87109375 26.03125 C36.14546768 26.75411194 36.41984161 27.47697388 36.70252991 28.22174072 C37.30335324 29.80679939 37.90055939 31.39323266 38.49462891 32.98083496 C40.1348799 37.36326114 41.80170398 41.73559572 43.46484375 46.109375 C43.99982986 47.51947845 43.99982986 47.51947845 44.54562378 48.95806885 C49.50870041 62.01393103 54.65253963 74.99968606 59.77926636 87.99194336 C61.01080008 91.1137514 62.23985993 94.23652553 63.46875 97.359375 C63.82252213 98.25319885 64.17629425 99.14702271 64.54078674 100.06793213 C68.17985806 109.32170895 71.58135998 118.66314933 75 128 C74.99555878 126.9646109 74.99111755 125.9292218 74.98654175 124.86245728 C74.94605787 115.1210061 74.91604558 105.37957191 74.89637566 95.6380558 C74.88592333 90.62943653 74.87173779 85.62088498 74.84912109 80.61230469 C74.82744425 75.78181667 74.8154423 70.95139394 74.81024551 66.12086105 C74.80654046 64.27480415 74.79930575 62.42875094 74.78853989 60.58272171 C74.77409343 58.00379876 74.77201917 55.42514809 74.77294922 52.84619141 C74.76575867 52.07727066 74.75856812 51.30834991 74.75115967 50.51612854 C74.77189568 45.22810432 74.77189568 45.22810432 77 43 C79.85543235 44.64364407 82.70907873 46.29036751 85.5625 47.9375 C86.73329102 48.61135742 86.73329102 48.61135742 87.92773438 49.29882812 C89.59150849 50.25997253 91.23477503 51.25733794 92.85766602 52.28601074 C96.00158896 54.14946428 96.00158896 54.14946428 99.77868652 55.08203125 C104.58441614 56.67067646 108.21805551 58.65569061 111 63 C113.75516367 73.17421875 112.79026675 84.36685275 112.52090907 94.80769658 C112.42679427 99.07143384 112.41830233 103.33534468 112.40052795 107.59996033 C112.35400187 115.66534893 112.23105818 123.72766835 112.08028561 131.79170841 C111.91230989 140.9763132 111.8300751 150.16106887 111.75485408 159.34682858 C111.59828635 178.23295585 111.33465208 197.11623076 111 216 C110.27409668 216.4031543 109.54819336 216.80630859 108.80029297 217.22167969 C106.08188339 218.73301645 103.36475144 220.2466192 100.6484375 221.76171875 C98.90460841 222.73350016 97.15934715 223.70271016 95.4140625 224.671875 C94.30546875 225.290625 93.196875 225.909375 92.0546875 226.546875 C90.53077393 227.39523926 90.53077393 227.39523926 88.97607422 228.26074219 C86.85247335 229.50180311 84.77952129 230.83123704 82.74658203 232.21582031 C80 234 80 234 78 234 C72.88681303 221.33542088 67.90792332 208.62794156 63.07250977 195.85479736 C61.33541386 191.26736517 59.59161255 186.68248396 57.84765625 182.09765625 C57.50964996 181.20890808 57.17164368 180.32015991 56.82339478 179.40447998 C50.40029696 162.52982754 43.73408381 145.752639 37 129 C35.76330088 130.01411102 35.76330088 130.01411102 35.88533211 132.11369133 C35.89015036 133.0527891 35.89496861 133.99188686 35.89993286 134.95944214 C35.90289368 136.03349304 35.90585449 137.10754395 35.90890503 138.21414185 C35.91721344 139.40272797 35.92552185 140.59131409 35.93408203 141.81591797 C35.93875488 143.05970215 35.94342773 144.30348633 35.94824219 145.58496094 C35.95877572 148.29637564 35.97106154 151.00772384 35.98596573 153.7191124 C36.00896837 158.00463298 36.02231458 162.29014877 36.03366089 166.57571411 C36.0671455 178.7642407 36.10873769 190.95269918 36.17138672 203.14111328 C36.20588281 209.86812832 36.22970992 216.59509256 36.24159515 223.32218659 C36.24837594 226.8843226 36.2608708 230.44624351 36.28662491 234.00829697 C36.31534259 237.98064437 36.32098642 241.95283942 36.32470703 245.92529297 C36.3370639 247.10983063 36.34942078 248.29436829 36.3621521 249.51480103 C36.35813385 251.13433685 36.35813385 251.13433685 36.35403442 252.78659058 C36.35809862 253.72644239 36.36216282 254.66629421 36.36635017 255.63462639 C35.92973041 258.45370209 35.21413435 259.26811195 33 261 C31.52782459 261.94706061 30.02389938 262.8456632 28.5 263.70703125 C27.17597168 264.45968262 27.17597168 264.45968262 25.82519531 265.22753906 C24.89288086 265.75057617 23.96056641 266.27361328 23 266.8125 C22.05479492 267.34713867 21.10958984 267.88177734 20.13574219 268.43261719 C17.42736749 269.96149331 14.71487819 271.48270804 12 273 C11.32517578 273.37753418 10.65035156 273.75506836 9.95507812 274.14404297 C1.24784483 279 1.24784483 279 0 279 C0 186.93 0 94.86 0 0 Z M35 124 C36 126 36 126 36 126 Z " fill="#010101" transform="translate(165,11)"/>
<path d="M0 0 C0.99 0.495 0.99 0.495 2 1 C2.42145976 17.36798228 2.7383486 33.73419256 2.93261909 50.10629749 C3.02524472 57.70935264 3.15136711 65.30902791 3.35791016 72.90991211 C3.53796601 79.53924512 3.65358716 86.1661311 3.69359291 92.79784125 C3.7169701 96.30734102 3.77137116 99.80984519 3.90314102 103.31708717 C4.6765849 124.69007826 4.6765849 124.69007826 0.14736176 130.29101181 C-4.65497511 134.37966021 -10.05555445 136.98056615 -16 139 C-12.39148683 141.9430838 -8.80297803 144.38648661 -4.75 146.6875 C0.9121813 149.9121813 0.9121813 149.9121813 2 151 C2.09608663 152.64490549 2.12187787 154.29395691 2.12025452 155.94166565 C2.12231651 157.54662399 2.12231651 157.54662399 2.12442017 159.18400574 C2.11902725 160.95992851 2.11902725 160.95992851 2.11352539 162.77172852 C2.11367142 164.010578 2.11381744 165.24942749 2.1139679 166.52581787 C2.11338892 169.93269833 2.10835959 173.33951884 2.10139394 176.74638867 C2.09515993 180.30316826 2.09455656 183.85994858 2.09336853 187.41673279 C2.09025535 194.15636582 2.08204215 200.89598271 2.07201904 207.63560861 C2.06085748 215.30658398 2.05534735 222.97756011 2.05032361 230.64854157 C2.03985952 246.43237041 2.02226035 262.21618313 2 278 C-1.92403475 277.29033931 -4.76520997 276.2229553 -8.23828125 274.234375 C-9.71651367 273.39326172 -9.71651367 273.39326172 -11.22460938 272.53515625 C-12.24361328 271.94605469 -13.26261719 271.35695313 -14.3125 270.75 C-15.31990234 270.17636719 -16.32730469 269.60273438 -17.36523438 269.01171875 C-20.25500033 267.35881028 -23.13717375 265.69920136 -26 264 C-26.66285979 263.68183886 -27.32571959 263.36367771 -28.00866604 263.03587532 C-33.56577514 260.12841847 -33.56577514 260.12841847 -34.70815754 257.15971375 C-34.94133012 254.89009579 -34.91941988 252.7444612 -34.80957031 250.46533203 C-34.80121658 249.61753174 -34.79286285 248.76973145 -34.78425598 247.89624023 C-34.76166449 246.05988521 -34.72098483 244.22368286 -34.66425323 242.38806534 C-34.57723506 239.47805177 -34.543715 236.5718186 -34.52484131 233.66061401 C-34.461072 225.38919183 -34.29663252 217.1204647 -34.10693359 208.85107422 C-33.99446618 203.78760578 -33.94056903 198.72609765 -33.92079926 193.66146469 C-33.90078426 191.73543296 -33.85760071 189.80949416 -33.79056549 187.8845253 C-33.35132011 179.32299787 -33.35132011 179.32299787 -35 171 C-38.5553812 167.28603113 -42.22306182 165.71919628 -47 164 C-48.78777162 163.07364904 -50.55931168 162.11524451 -52.3125 161.125 C-53.19848877 160.64691895 -54.08447754 160.16883789 -54.99731445 159.67626953 C-58.66454979 157.62901058 -62.2600602 155.47490273 -65.85546875 153.3046875 C-66.54523804 152.88952881 -67.23500732 152.47437012 -67.94567871 152.04663086 C-69.63103732 151.03205812 -71.3156008 150.01616476 -73 149 C-72.99777939 149.98892242 -72.99555878 150.97784485 -72.99327087 151.99673462 C-72.97298273 161.32489929 -72.95800051 170.65305948 -72.94818783 179.98124123 C-72.94297343 184.77672878 -72.93590196 189.57219849 -72.92456055 194.36767578 C-72.91368042 198.99717763 -72.90771229 203.62666234 -72.90512276 208.25617599 C-72.90327775 210.02076868 -72.89967493 211.78536046 -72.89426994 213.54994583 C-72.8869915 216.02501693 -72.88601193 218.50001755 -72.88647461 220.97509766 C-72.88287933 221.70158508 -72.87928406 222.42807251 -72.87557983 223.17657471 C-72.88374316 227.22289218 -73.21677653 231.02998346 -74 235 C-79.24600439 233.51171349 -83.50457605 231.11595066 -88.125 228.3125 C-89.52321552 227.47488976 -90.92165876 226.63765954 -92.3203125 225.80078125 C-93.00859005 225.36930125 -93.6968676 224.93782125 -94.40600204 224.49326611 C-97.01601155 222.92208232 -97.01601155 222.92208232 -100.02518082 221.71136189 C-108.30444797 217.87057414 -108.30444797 217.87057414 -110.13430023 212.94948387 C-110.59404528 209.04951612 -110.67030506 205.23647678 -110.61621094 201.3190918 C-110.63904464 199.82683151 -110.66690931 198.33464104 -110.69940186 196.84255981 C-110.7710216 192.80216389 -110.76648363 188.76524631 -110.74363232 184.72440696 C-110.73124234 181.34469923 -110.75565847 177.96565488 -110.7797873 174.58604175 C-110.83592856 166.60765928 -110.82976593 158.63098995 -110.78417969 150.65258789 C-110.7382822 142.43855401 -110.79448802 134.22974824 -110.90176558 126.01640385 C-110.99058474 118.94997505 -111.01690292 111.88518174 -110.99345994 104.81823474 C-110.9800135 100.60365622 -110.98938954 96.39242563 -111.05846405 92.17831993 C-111.43751107 66.66468857 -111.43751107 66.66468857 -107.42864418 60.637537 C-103.77251947 57.10183848 -99.74790446 55.17160107 -94.93906403 53.64757729 C-92.14120531 52.71319362 -89.70156994 51.26205926 -87.16796875 49.76953125 C-86.30478027 49.3101416 -85.4415918 48.85075195 -84.55224609 48.37744141 C-80.05850959 45.95218204 -75.69528213 43.30627744 -71.3125 40.6875 C-62.90606604 35.69276352 -54.44847564 30.81326403 -45.90332031 26.06054688 C-42.59617577 24.21777675 -39.29868291 22.35786048 -36 20.5 C-31.95497544 18.22324886 -27.90897104 15.94829939 -23.859375 13.6796875 C-23.17762207 13.29731934 -22.49586914 12.91495117 -21.79345703 12.52099609 C-20.44593667 11.76528993 -19.09796462 11.01038856 -17.74951172 10.25634766 C-14.60664059 8.49273902 -11.48478395 6.70476067 -8.3984375 4.84375 C-7.31820312 4.1940625 -6.23796875 3.544375 -5.125 2.875 C-4.17882812 2.29492188 -3.23265625 1.71484375 -2.2578125 1.1171875 C-1.51273437 0.74851562 -0.76765625 0.37984375 0 0 Z M-56.2565918 73.57592773 C-61.75260433 76.92162253 -67.32500585 79.90454865 -73 83 C-73 98.51 -73 114.02 -73 130 C-68.38 127.36 -63.76 124.72 -59 122 C-54.5 119.5 -54.5 119.5 -52.43359375 118.35546875 C-49.13672862 116.51917308 -45.84680426 114.67116306 -42.5625 112.8125 C-41.94632813 112.46703125 -41.33015625 112.1215625 -40.6953125 111.765625 C-38.1806542 110.33747831 -36.05523655 109.05523655 -34 107 C-33.70848578 104.97990192 -33.70848578 104.97990192 -33.77294922 102.64208984 C-33.77317581 101.29091568 -33.77317581 101.29091568 -33.77340698 99.91244507 C-33.78372955 98.93844757 -33.79405212 97.96445007 -33.8046875 96.9609375 C-33.80893234 95.46694931 -33.80893234 95.46694931 -33.81326294 93.94277954 C-33.8244816 90.75339882 -33.84958919 87.56429622 -33.875 84.375 C-33.88502762 82.21614988 -33.89415385 80.05729537 -33.90234375 77.8984375 C-33.92442639 72.59886301 -33.95792042 67.29945137 -34 62 C-41.17612888 62 -50.11491806 69.81409922 -56.2565918 73.57592773 Z " fill="#010101" transform="translate(136,11)"/>
<path d="M0 0 C0.33 0 0.66 0 1 0 C1 31.02 1 62.04 1 94 C-3.39299788 93.12140042 -5.70425428 92.26724557 -9.484375 90.12890625 C-10.50144531 89.55462891 -11.51851562 88.98035156 -12.56640625 88.38867188 C-13.61699219 87.78603516 -14.66757813 87.18339844 -15.75 86.5625 C-16.81605469 85.96373047 -17.88210937 85.36496094 -18.98046875 84.74804688 C-26.86960739 80.26078521 -26.86960739 80.26078521 -28 78 C-27.37351562 78.09539062 -26.74703125 78.19078125 -26.1015625 78.2890625 C-25.28429687 78.39992188 -24.46703125 78.51078125 -23.625 78.625 C-22.40683594 78.79902344 -22.40683594 78.79902344 -21.1640625 78.9765625 C-20.44992188 78.98429687 -19.73578125 78.99203125 -19 79 C-18.01 78.01 -18.01 78.01 -17 77 C-16.01 77 -15.02 77 -14 77 C-13.9175 76.4225 -13.835 75.845 -13.75 75.25 C-12.774018 72.32205399 -11.36488777 70.94755463 -9 69 C-8.01 69 -7.02 69 -6 69 C-5.9175 68.4225 -5.835 67.845 -5.75 67.25 C-5 65 -5 65 -2.98724365 63.23773193 C-0.41358387 60.33966724 -0.48580936 58.78293264 -0.45410156 54.94628906 C-0.42452362 53.11484344 -0.42452362 53.11484344 -0.39434814 51.24639893 C-0.39311951 49.93274353 -0.39189087 48.61908813 -0.390625 47.265625 C-0.37564007 45.90368688 -0.35891225 44.54176691 -0.34051514 43.17987061 C-0.2968633 39.60259152 -0.27684777 36.02555754 -0.26177979 32.44805908 C-0.24220054 28.7946525 -0.20023159 25.14151032 -0.16015625 21.48828125 C-0.08487793 14.32559195 -0.03457256 7.16301371 0 0 Z " fill="#020202" transform="translate(137,195)"/>
<path d="M0 0 C0.66 0 1.32 0 2 0 C2 31.02 2 62.04 2 94 C2.99 93.505 2.99 93.505 4 93 C4 93.66 4 94.32 4 95 C5.32 95.33 6.64 95.66 8 96 C7.01 95.01 6.02 94.02 5 93 C6 91 7 89 8 87 C8.66 87 9.32 87 10 87 C10 86.34 10 85.68 10 85 C10.66 85 11.32 85 12 85 C12 84.34 12 83.68 12 83 C13.32 83.66 14.64 84.32 16 85 C16 85.66 16 86.32 16 87 C15.401875 87.556875 14.80375 88.11375 14.1875 88.6875 C11.50875694 91.51931409 10.46119069 94.41344104 9 98 C8.01 98.99 8.01 98.99 7 100 C5.68 100 4.36 100 3 100 C2.26182527 103.30157407 1.87701955 106.34599166 1.88647461 109.72680664 C1.88655014 110.63447281 1.88662567 111.54213898 1.88670349 112.47731018 C1.89186478 113.44514938 1.89702606 114.41298859 1.90234375 115.41015625 C1.9037587 116.41461288 1.90517365 117.41906952 1.90663147 118.45396423 C1.91221597 121.65684012 1.92475495 124.85964539 1.9375 128.0625 C1.94251796 130.22200419 1.94708035 132.38150948 1.95117188 134.54101562 C1.96099023 139.29612721 1.97518978 144.05120259 1.99327087 148.80628967 C1.99960384 150.87085129 2 152.93542867 2 155 C1.01 154.67 0.02 154.34 -1 154 C-1.02332743 134.06855057 -1.04097841 114.13710389 -1.05181217 94.20564365 C-1.05697546 84.9517884 -1.06401878 75.69794162 -1.07543945 66.4440918 C-1.08538529 58.38143802 -1.09185319 50.31879037 -1.09408849 42.25613064 C-1.09539577 37.98431479 -1.0984827 33.71251649 -1.10573006 29.44070625 C-1.11248869 25.42464044 -1.11461728 21.40859949 -1.11310768 17.39252853 C-1.11338408 15.91423215 -1.11539013 14.43593499 -1.11920547 12.95764351 C-1.12414021 10.94801043 -1.12239814 8.93836419 -1.12025452 6.9287262 C-1.12117631 5.80137338 -1.1220981 4.67402056 -1.12304783 3.51250553 C-1 1 -1 1 0 0 Z " fill="#0E0E0E" transform="translate(28,73)"/>
<path d="M0 0 C6.75 2.25 6.75 2.25 9.6484375 3.9453125 C10.26074219 4.29980469 10.87304688 4.65429688 11.50390625 5.01953125 C12.12136719 5.38433594 12.73882812 5.74914062 13.375 6.125 C14.01566406 6.49753906 14.65632812 6.87007812 15.31640625 7.25390625 C16.88048477 8.16434002 18.44065534 9.08148191 20 10 C19.36707031 10.26425781 18.73414063 10.52851563 18.08203125 10.80078125 C15.35673626 12.37051026 15.05696162 14.1995015 13.9921875 17.046875 C12.13901538 20.69485162 9.00740216 23.28921833 6 26 C3.525 25.01 3.525 25.01 1 24 C0.67 25.32 0.34 26.64 0 28 C0 18.76 0 9.52 0 0 Z " fill="#0F0F0F" transform="translate(165,11)"/>
<path d="M0 0 C0.33 6.93 0.66 13.86 1 21 C1.99 20.01 2.98 19.02 4 18 C4.66 18 5.32 18 6 18 C6.37125 17.0409375 6.37125 17.0409375 6.75 16.0625 C8 14 8 14 10.125 13.25 C11.053125 13.12625 11.053125 13.12625 12 13 C12 12.01 12 11.02 12 10 C12.66 10 13.32 10 14 10 C14 10.99 14 11.98 14 13 C15.32 13 16.64 13 18 13 C18 13.99 18 14.98 18 16 C17.01 16 16.02 16 15 16 C14.67 17.32 14.34 18.64 14 20 C12 20 10 20 8 20 C6.73848063 22.34282168 5.8454385 24.50490091 5.0625 27.0625 C4 30 4 30 2.46557617 31.43286133 C0.64249798 33.38227644 0.58724938 34.37916645 0.48828125 37.01171875 C0.45283203 37.76904297 0.41738281 38.52636719 0.38085938 39.30664062 C0.34702148 40.48516602 0.34702148 40.48516602 0.3125 41.6875 C0.27833984 42.48478516 0.24417969 43.28207031 0.20898438 44.10351562 C0.12661896 46.06851904 0.06162933 48.03423696 0 50 C-1.98 50.99 -3.96 51.98 -6 53 C-6 52.01 -6 51.02 -6 50 C-5.01 49.34 -4.02 48.68 -3 48 C-2.5254169 45.98923215 -2.5254169 45.98923215 -2.56762695 43.64208984 C-2.54783279 42.74130707 -2.52803864 41.84052429 -2.50764465 40.91244507 C-2.49805977 39.45144882 -2.49805977 39.45144882 -2.48828125 37.9609375 C-2.47033005 36.96494537 -2.45237885 35.96895325 -2.43388367 34.94277954 C-2.37959002 31.75356311 -2.34582383 28.56449791 -2.3125 25.375 C-2.27934376 23.21612469 -2.24485571 21.0572694 -2.20898438 18.8984375 C-2.123853 13.59909397 -2.05558425 8.29973131 -2 3 C-3.98 3.66 -5.96 4.32 -8 5 C-3.375 0 -3.375 0 0 0 Z " fill="#111111" transform="translate(104,70)"/>
<path d="M0 0 C0.33 0 0.66 0 1 0 C1 31.02 1 62.04 1 94 C0.67 94 0.34 94 0 94 C-0.66 87.4 -1.32 80.8 -2 74 C-2.99 74.99 -2.99 74.99 -4 76 C-6.93453261 75.63318342 -7.86437246 75.13562754 -10 73 C-9.625 70.875 -9.625 70.875 -9 69 C-8.01 69 -7.02 69 -6 69 C-5.9175 68.4225 -5.835 67.845 -5.75 67.25 C-5 65 -5 65 -2.98724365 63.23773193 C-0.41358387 60.33966724 -0.48580936 58.78293264 -0.45410156 54.94628906 C-0.42452362 53.11484344 -0.42452362 53.11484344 -0.39434814 51.24639893 C-0.39311951 49.93274353 -0.39189087 48.61908813 -0.390625 47.265625 C-0.37564007 45.90368688 -0.35891225 44.54176691 -0.34051514 43.17987061 C-0.2968633 39.60259152 -0.27684777 36.02555754 -0.26177979 32.44805908 C-0.24220054 28.7946525 -0.20023159 25.14151032 -0.16015625 21.48828125 C-0.08487793 14.32559195 -0.03457256 7.16301371 0 0 Z " fill="#0F0F0F" transform="translate(137,195)"/>
<path d="M0 0 C2.58303084 2.58303084 2.23582174 4.31426711 2.24884033 7.83343506 C2.24164978 8.6491095 2.23445923 9.46478394 2.22705078 10.30517578 C2.22734283 11.16378204 2.22763489 12.02238831 2.22793579 12.90701294 C2.22653922 15.75321457 2.21096273 18.59915644 2.1953125 21.4453125 C2.19158353 23.41543434 2.18873601 25.38555802 2.18673706 27.35568237 C2.17909146 32.54743548 2.15943504 37.73907714 2.1373291 42.93078613 C2.1168906 48.2259775 2.10773962 53.52118683 2.09765625 58.81640625 C2.07619001 69.21098654 2.04204292 79.60548401 2 90 C1.34 90 0.68 90 0 90 C-0.15357091 78.41318255 -0.30175268 66.82631012 -0.4429636 55.23933506 C-0.50869757 49.85963213 -0.57632115 44.4799665 -0.64819336 39.1003418 C-0.71742427 33.91330093 -0.78178287 28.72622084 -0.84269524 23.53907585 C-0.8668588 21.55541711 -0.8928085 19.57177934 -0.92053413 17.58816719 C-0.95892771 14.81996061 -0.99109484 12.05174902 -1.02172852 9.28344727 C-1.03467453 8.45482681 -1.04762054 7.62620636 -1.06095886 6.7724762 C-1.07901356 4.84829488 -1.04524252 2.92373408 -1 1 C-0.67 0.67 -0.34 0.34 0 0 Z " fill="#111111" transform="translate(102,180)"/>
<path d="M0 0 C0.33 0 0.66 0 1 0 C1.08107583 1.93681161 1.13922475 3.8745934 1.1875 5.8125 C1.23970703 7.43091797 1.23970703 7.43091797 1.29296875 9.08203125 C1 12 1 12 -0.3125 13.875 C-2.8345207 15.55634713 -5.05224987 15.19651668 -8 15 C-8 16.65 -8 18.3 -8 20 C-9.32 20 -10.64 20 -12 20 C-12 20.99 -12 21.98 -12 23 C-13.875 22.75 -13.875 22.75 -16 22 C-17.25 19.9375 -17.25 19.9375 -18 18 C-17.38125 17.7525 -16.7625 17.505 -16.125 17.25 C-13.5927804 15.76045906 -13.19281342 14.62418952 -12 12 C-10.5625 10.25 -10.5625 10.25 -9 9 C-8.01 9 -7.02 9 -6 9 C-5.87625 8.401875 -5.7525 7.80375 -5.625 7.1875 C-5 5 -5 5 -3 2 C-2.01 2 -1.02 2 0 2 C0 1.34 0 0.68 0 0 Z " fill="#0D0D0E" transform="translate(199,193)"/>
<path d="M0 0 C0 3.3 0 6.6 0 10 C-0.66 10 -1.32 10 -2 10 C-2.66 11.32 -3.32 12.64 -4 14 C-8 14 -8 14 -10 13 C-9.34 14.32 -8.68 15.64 -8 17 C-9.65 17.33 -11.3 17.66 -13 18 C-13 19.32 -13 20.64 -13 22 C-14.9375 21.3125 -14.9375 21.3125 -17 20 C-17.75 17.375 -17.75 17.375 -18 15 C-17.05125 14.4225 -16.1025 13.845 -15.125 13.25 C-12.23865902 11.17183449 -11.15904259 10.24531925 -10 7 C-9.01 7 -8.02 7 -7 7 C-7 6.01 -7 5.02 -7 4 C-2.65714286 0 -2.65714286 0 0 0 Z " fill="#121212" transform="translate(274,120)"/>
<path d="M0 0 C4.30764815 1.56641751 8.06171464 3.68336156 12 6 C12 6.66 12 7.32 12 8 C10.34467377 9.01866229 8.67739862 10.01810813 7 11 C6.67 11.66 6.34 12.32 6 13 C5.34 13 4.68 13 4 13 C4 13.66 4 14.32 4 15 C3.34 15 2.68 15 2 15 C1.67 15.99 1.34 16.98 1 18 C0.34 18 -0.32 18 -1 18 C-1.02698422 15.56242587 -1.04683099 13.12515085 -1.0625 10.6875 C-1.07087891 9.99720703 -1.07925781 9.30691406 -1.08789062 8.59570312 C-1.10307906 5.4516975 -1.00193327 3.00579981 0 0 Z " fill="#020202" transform="translate(167,12)"/>
<path d="M0 0 C0.89891881 16.74720404 1.00679618 33.2565914 0 50 C-1.98 50.99 -3.96 51.98 -6 53 C-6 52.01 -6 51.02 -6 50 C-5.01 49.34 -4.02 48.68 -3 48 C-2.5254169 45.98923215 -2.5254169 45.98923215 -2.56762695 43.64208984 C-2.54783279 42.74130707 -2.52803864 41.84052429 -2.50764465 40.91244507 C-2.49805977 39.45144882 -2.49805977 39.45144882 -2.48828125 37.9609375 C-2.47033005 36.96494537 -2.45237885 35.96895325 -2.43388367 34.94277954 C-2.37959002 31.75356311 -2.34582383 28.56449791 -2.3125 25.375 C-2.27934376 23.21612469 -2.24485571 21.0572694 -2.20898438 18.8984375 C-2.123853 13.59909397 -2.05558425 8.29973131 -2 3 C-3.98 3.66 -5.96 4.32 -8 5 C-3.375 0 -3.375 0 0 0 Z " fill="#1C1C1C" transform="translate(104,70)"/>
<path d="M0 0 C0.33 0.99 0.66 1.98 1 3 C3.01508358 3.73323796 3.01508358 3.73323796 5 4 C4.67 4.99 4.34 5.98 4 7 C3.01 6.67 2.02 6.34 1 6 C0.67 6.66 0.34 7.32 0 8 C0.66 8.33 1.32 8.66 2 9 C1.01 9.99 0.02 10.98 -1 12 C-0.67 12.66 -0.34 13.32 0 14 C-3.69876091 12.62712658 -6.9514476 10.93644547 -10.3125 8.875 C-11.19550781 8.33617187 -12.07851562 7.79734375 -12.98828125 7.2421875 C-13.65214844 6.83226562 -14.31601563 6.42234375 -15 6 C-13 5 -13 5 -9.5 5.5625 C-8.345 5.706875 -7.19 5.85125 -6 6 C-5.34 5.34 -4.68 4.68 -4 4 C-3.01 4 -2.02 4 -1 4 C-0.67 2.68 -0.34 1.36 0 0 Z " fill="#121212" transform="translate(124,268)"/>
<path d="M0 0 C0.33 0 0.66 0 1 0 C1 15.51 1 31.02 1 47 C0.01 47 -0.98 47 -2 47 C-1.88072178 41.91360841 -1.75641883 36.82737203 -1.62768555 31.74121094 C-1.58467542 30.01500691 -1.54298052 28.28876954 -1.50268555 26.5625 C-1.29416265 17.6655232 -1.08043574 8.84323035 0 0 Z " fill="#0F0F0F" transform="translate(200,222)"/>
<path d="M0 0 C3.96 1.98 3.96 1.98 8 4 C7.67 4.66 7.34 5.32 7 6 C6.34 6 5.68 6 5 6 C4.67 6.66 4.34 7.32 4 8 C3.01 8 2.02 8 1 8 C1 13.94 1 19.88 1 26 C0.34 26.33 -0.32 26.66 -1 27 C-1.02892385 22.87501462 -1.04677267 18.75005515 -1.0625 14.625 C-1.07087891 13.449375 -1.07925781 12.27375 -1.08789062 11.0625 C-1.09111328 9.94101562 -1.09433594 8.81953125 -1.09765625 7.6640625 C-1.10289307 6.62717285 -1.10812988 5.5902832 -1.11352539 4.52197266 C-1 2 -1 2 0 0 Z " fill="#110F10" transform="translate(241,54)"/>
<path d="M0 0 C2 3 2 3 1.6875 5 C1.460625 5.66 1.23375 6.32 1 7 C0.67 7.99 0.34 8.98 0 10 C0.66 10 1.32 10 2 10 C2 10.99 2 11.98 2 13 C0.35 13 -1.3 13 -3 13 C-3 14.32 -3 15.64 -3 17 C-3.99 17 -4.98 17 -6 17 C-8 14 -8 14 -7.8125 12 C-6.87550323 9.69354642 -5.97053324 8.5157948 -4 7 C-3.01 7 -2.02 7 -1 7 C-0.67 4.69 -0.34 2.38 0 0 Z " fill="#121212" transform="translate(215,76)"/>
<path d="M0 0 C0.66 1.65 1.32 3.3 2 5 C0.42466914 5.86883706 -1.16064509 6.71959068 -2.75 7.5625 C-3.63171875 8.03816406 -4.5134375 8.51382813 -5.421875 9.00390625 C-8.20701188 10.07998186 -9.26980214 10.06528748 -12 9 C-11.071875 8.87625 -11.071875 8.87625 -10.125 8.75 C-7.85609195 8.21402157 -7.85609195 8.21402157 -7 6.1875 C-6.67 5.465625 -6.34 4.74375 -6 4 C-2.44444444 0 -2.44444444 0 0 0 Z " fill="#101010" transform="translate(265,227)"/>
<path d="M0 0 C0.33 1.32 0.66 2.64 1 4 C2.65 4.33 4.3 4.66 6 5 C6 5.66 6 6.32 6 7 C4.68 7 3.36 7 2 7 C2 7.99 2 8.98 2 10 C0.125 9.75 0.125 9.75 -2 9 C-3.25 6.9375 -3.25 6.9375 -4 5 C-3.34 4.67 -2.68 4.34 -2 4 C-0.86649466 1.98330173 -0.86649466 1.98330173 0 0 Z " fill="#0F0F0F" transform="translate(47,149)"/>
<path d="M0 0 C-2.7450908 1.65412761 -5.4968612 3.29680834 -8.25 4.9375 C-9.02730469 5.40607422 -9.80460937 5.87464844 -10.60546875 6.35742188 C-11.73662109 7.0293457 -11.73662109 7.0293457 -12.890625 7.71484375 C-13.58188477 8.12855225 -14.27314453 8.54226074 -14.98535156 8.96850586 C-16.98857553 9.99415071 -18.80237 10.5497013 -21 11 C-17.86918025 7.60060503 -14.40465341 5.10909344 -10.5 2.6875 C-9.93152344 2.31560547 -9.36304687 1.94371094 -8.77734375 1.56054688 C-5.37245153 -0.56059828 -3.79578229 -1.24901755 0 0 Z " fill="#171717" transform="translate(84,83)"/>
<path d="M0 0 C0.94875 0.350625 1.8975 0.70125 2.875 1.0625 C1.946875 1.4028125 1.946875 1.4028125 1 1.75 C-1.73910209 3.44179835 -2.17524472 5.05494161 -3.125 8.0625 C-5.0625 7.75 -5.0625 7.75 -7.125 7.0625 C-7.455 6.0725 -7.785 5.0825 -8.125 4.0625 C-7.465 3.7325 -6.805 3.4025 -6.125 3.0625 C-5.465 3.3925 -4.805 3.7225 -4.125 4.0625 C-4.455 2.7425 -4.785 1.4225 -5.125 0.0625 C-3.125 -0.9375 -3.125 -0.9375 0 0 Z " fill="#131313" transform="translate(182.125,19.9375)"/>
<path d="M0 0 C0.33 0 0.66 0 1 0 C1 1.98 1 3.96 1 6 C0.01 6 -0.98 6 -2 6 C-1.67 7.65 -1.34 9.3 -1 11 C-1.99 11 -2.98 11 -4 11 C-5.1875 8.75 -5.1875 8.75 -6 6 C-4.8125 3.6875 -4.8125 3.6875 -3 2 C-2.01 2 -1.02 2 0 2 C0 1.34 0 0.68 0 0 Z " fill="#0E0E0F" transform="translate(199,193)"/>
<path d="M0 0 C0.99 0 1.98 0 3 0 C2.34 1.65 1.68 3.3 1 5 C2.65 5.99 4.3 6.98 6 8 C3 9 3 9 1.0625 8.3125 C-1.30551078 6.80558405 -3.08946427 5.04700257 -5 3 C-3.35 2.67 -1.7 2.34 0 2 C0 1.34 0 0.68 0 0 Z " fill="#0F0F0F" transform="translate(119,146)"/>
<path d="M0 0 C0 0.66 0 1.32 0 2 C-1.72718516 2.96189997 -3.45684058 3.91936508 -5.1875 4.875 C-6.15042969 5.40867187 -7.11335938 5.94234375 -8.10546875 6.4921875 C-10.69739518 7.8423678 -13.26761098 8.97098329 -16 10 C-16 10.66 -16 11.32 -16 12 C-16.99 12.33 -17.98 12.66 -19 13 C-19 12.01 -19 11.02 -19 10 C-17.47119141 8.74145508 -17.47119141 8.74145508 -15.3515625 7.51953125 C-14.59359375 7.07802734 -13.835625 6.63652344 -13.0546875 6.18164062 C-12.25289063 5.72982422 -11.45109375 5.27800781 -10.625 4.8125 C-9.8309375 4.34908203 -9.036875 3.88566406 -8.21875 3.40820312 C-2.29580495 0 -2.29580495 0 0 0 Z " fill="#1F1F1F" transform="translate(102,31)"/>
<path d="M0 0 C0 4.62 0 9.24 0 14 C-0.33 14 -0.66 14 -1 14 C-1.33 10.37 -1.66 6.74 -2 3 C-3.98 3.66 -5.96 4.32 -8 5 C-3.375 0 -3.375 0 0 0 Z " fill="#141414" transform="translate(104,70)"/>
<path d="M0 0 C0.66 0.33 1.32 0.66 2 1 C1.01 1.33 0.02 1.66 -1 2 C-1 2.66 -1 3.32 -1 4 C-4.27510976 7.13864685 -8.6358355 8.90423575 -13 10 C-13.66 9.67 -14.32 9.34 -15 9 C-12.54732365 7.46931512 -10.08866106 5.95031377 -7.625 4.4375 C-6.92632812 3.99986328 -6.22765625 3.56222656 -5.5078125 3.11132812 C-3.70814097 2.01249022 -1.85677657 0.99932133 0 0 Z " fill="#191919" transform="translate(118,21)"/>
<path d="M0 0 C5.64913063 1.65707832 10.26300637 3.47762012 15 7 C14.34 7.66 13.68 8.32 13 9 C10.83061859 7.69181533 8.6644848 6.37874076 6.5 5.0625 C5.87996094 4.68931641 5.25992188 4.31613281 4.62109375 3.93164062 C3.06370003 2.9818016 1.5296725 1.99386689 0 1 C0 0.67 0 0.34 0 0 Z " fill="#121212" transform="translate(70,163)"/>
<path d="M0 0 C1.32 0.66 2.64 1.32 4 2 C4 3.65 4 5.3 4 7 C2.125 6.75 2.125 6.75 0 6 C-1.25 3.9375 -1.25 3.9375 -2 2 C-1.34 1.34 -0.68 0.68 0 0 Z " fill="#111111" transform="translate(134,160)"/>
<path d="M0 0 C0.66 0 1.32 0 2 0 C2 0.66 2 1.32 2 2 C2.66 2 3.32 2 4 2 C4.33 3.65 4.66 5.3 5 7 C4.01 7.495 4.01 7.495 3 8 C2.34 7.67 1.68 7.34 1 7 C1 6.34 1 5.68 1 5 C0.01 4.67 -0.98 4.34 -2 4 C-1.34 2.68 -0.68 1.36 0 0 Z " fill="#121212" transform="translate(253,139)"/>
<path d="M0 0 C0.99 0.33 1.98 0.66 3 1 C3 1.99 3 2.98 3 4 C3.66 4 4.32 4 5 4 C5 4.66 5 5.32 5 6 C3.68 6 2.36 6 1 6 C1 5.01 1 4.02 1 3 C-1.51083114 4.25541557 -1.87125446 5.50063488 -3 8 C-3.66 7.01 -4.32 6.02 -5 5 C-3.35 3.35 -1.7 1.7 0 0 Z " fill="#161616" transform="translate(190,202)"/>
<path d="M0 0 C0 0.99 0 1.98 0 3 C-2.08203125 4.640625 -2.08203125 4.640625 -4.8125 6.25 C-6.15248047 7.06210938 -6.15248047 7.06210938 -7.51953125 7.890625 C-10 9 -10 9 -13 8 C-8.71 5.36 -4.42 2.72 0 0 Z " fill="#1A1A1A" transform="translate(79,131)"/>
<path d="M0 0 C2 2 2 2 2 5 C2.66 5 3.32 5 4 5 C4 5.66 4 6.32 4 7 C5.65 6.34 7.3 5.68 9 5 C9.33 5.66 9.66 6.32 10 7 C5.25 10 5.25 10 3 10 C0 3.375 0 3.375 0 0 Z " fill="#0B0A0B" transform="translate(240,235)"/>
<path d="M0 0 C0.66 0 1.32 0 2 0 C2 0.66 2 1.32 2 2 C2.66 2 3.32 2 4 2 C4 3.98 4 5.96 4 8 C3.01 7.67 2.02 7.34 1 7 C1 6.34 1 5.68 1 5 C0.01 4.67 -0.98 4.34 -2 4 C-1.34 2.68 -0.68 1.36 0 0 Z " fill="#131313" transform="translate(204,90)"/>
<path d="M0 0 C0.33 0.66 0.66 1.32 1 2 C-0.40552299 3.03612271 -1.82491694 4.05344925 -3.25 5.0625 C-4.43335938 5.91521484 -4.43335938 5.91521484 -5.640625 6.78515625 C-8 8 -8 8 -12 7 C-8.04 4.69 -4.08 2.38 0 0 Z " fill="#191919" transform="translate(66,51)"/>
<path d="M0 0 C-1.38866323 0.9893091 -2.78629851 1.96603078 -4.1875 2.9375 C-4.96480469 3.48277344 -5.74210937 4.02804688 -6.54296875 4.58984375 C-9.07950299 6.0456289 -11.1218182 6.59613435 -14 7 C-10.41093986 2.98025264 -5.55416198 -1.85138733 0 0 Z " fill="#1B1B1B" transform="translate(82,44)"/>
<path d="M0 0 C2.97 1.98 2.97 1.98 6 4 C5.67 4.66 5.34 5.32 5 6 C3.68 6 2.36 6 1 6 C1 5.34 1 4.68 1 4 C0.34 4 -0.32 4 -1 4 C-0.67 2.68 -0.34 1.36 0 0 Z " fill="#0A0A0A" transform="translate(126,267)"/>
<path d="M0 0 C0.66 0 1.32 0 2 0 C2.66 2.31 3.32 4.62 4 7 C3.01 7.33 2.02 7.66 1 8 C1 6.68 1 5.36 1 4 C0.34 4 -0.32 4 -1 4 C-0.67 2.68 -0.34 1.36 0 0 Z " fill="#090909" transform="translate(216,82)"/>
<path d="M0 0 C0.33 0.99 0.66 1.98 1 3 C3.01508358 3.73323796 3.01508358 3.73323796 5 4 C4.67 4.99 4.34 5.98 4 7 C2.0625 6.25 2.0625 6.25 0 5 C-0.8125 2.9375 -0.8125 2.9375 -1 1 C-0.67 0.67 -0.34 0.34 0 0 Z " fill="#171717" transform="translate(124,268)"/>
<path d="M0 0 C2.475 0.495 2.475 0.495 5 1 C5 2.32 5 3.64 5 5 C4.01 5 3.02 5 2 5 C1.34 3.35 0.68 1.7 0 0 Z " fill="#151516" transform="translate(193,199)"/>
<path d="M0 0 C1.65 0 3.3 0 5 0 C5 1.65 5 3.3 5 5 C3.0625 4.1875 3.0625 4.1875 1 3 C0.67 2.01 0.34 1.02 0 0 Z " fill="#181818" transform="translate(43,154)"/>
<path d="M0 0 C1.32 1.32 2.64 2.64 4 4 C3.02149805 5.02104551 2.02019573 6.0206121 1 7 C0.67 7 0.34 7 0 7 C0 4.69 0 2.38 0 0 Z " fill="#0C0C0C" transform="translate(104,96)"/>
<path d="M0 0 C0.99 0.33 1.98 0.66 3 1 C2.071875 1.4021875 2.071875 1.4021875 1.125 1.8125 C-1.2995233 2.95556848 -1.2995233 2.95556848 -3 6 C-3.99 5.67 -4.98 5.34 -6 5 C-2.25 1.125 -2.25 1.125 0 0 Z " fill="#110E0F" transform="translate(43,64)"/>
</svg>
